<?xml version="1.0" encoding="utf-8"?>
<!-- Generator: Adobe Illustrator 16.0.0, SVG Export Plug-In . SVG Version: 6.00 Build 0)  -->
<!DOCTYPE svg PUBLIC "-//W3C//DTD SVG 1.1//EN" "http://www.w3.org/Graphics/SVG/1.1/DTD/svg11.dtd">
<svg version="1.1" id="Layer_1" xmlns="http://www.w3.org/2000/svg" xmlns:xlink="http://www.w3.org/1999/xlink" x="0px" y="0px"
	 width="283.5px" height="231.425px" viewBox="0 0 283.5 231.425" enable-background="new 0 0 283.5 231.425" xml:space="preserve">
<defs  xmlns="http://www.w3.org/1999/xhtml">
	<style  type="text/css">
		<![CDATA[
path { fill: none; stroke: rgb(0, 0, 0); stroke-width: 1px; }
			]]>
	</style>
</defs>
<path fill="none" stroke="#000000" d="M239.342,113.993l1.047-0.221l-0.35-4.195l0.697-0.442l-0.175,5.74l-1.571,0.221l-0.697,0.442
	l0.174,3.09l-0.697,1.104l0.697-0.662h0.35l-0.175,1.104h-0.522v0.662h0.696l0.351,4.193l-5.586,0.441l-0.176,0.883l1.571-0.441
	l0.349,0.662l0.524,2.207l1.047,0.221l3.84-1.545l-1.745,1.104l0.524,0.662l-1.048,0.662h2.095l-1.222,5.958l-4.363,4.414
	l-5.061-1.104l-0.351,1.766l-0.328,0.186l-1.241,0.697h-5.236l-0.086-0.04l-3.231-1.505l-0.522-0.221l-0.523,1.766l0.873,0.221
	l3.143,1.104l5.586-0.221l0.349,0.441l18.5-1.324l4.538,7.946l5.236,8.608l-6.981,0.221l-1.92,2.869l1.956,1.328l-0.211,0.658
	l-0.873,2.648l-0.697,1.766l0.35,0.221l0.523,0.441l-0.698,0.883l-0.175,0.221l1.396,2.429h5.234l3.491,3.31l4.835-6.859l2.32-3.293
	l11.17,12.58l5.236,3.529l-0.521,3.76l-3.669,26.469l-0.391,0.228l-6.631-4.745l-1.84,2.793l6.523,4.812l-0.293,0.421l-6.446-3.729
	l-0.476,0.278l-1.227,0.084l-1.117,0.371l-1.943-0.976l-1.012-1.532l-1.545-1.009l-1.652-0.287l-1.625-0.655l-0.932-0.556
	l-0.373-0.489l-1.412-0.033h-0.455h-0.851l-2.312-0.271l-0.219-0.082l-0.559-1.012l-0.443-0.674l-1.396-2.205l-0.982-1.025
	l-0.589-1.18l-0.478-0.891l-0.399-2.877l0.586-1.295l1.386-1.145l0.904-0.49l0.374-0.791l-0.667-1.146l-1.195-0.926l-0.748-0.438
	l0.051,0.207l0.217,0.887l0.08,1.365l-1.225,1.178l-1.359,0.287l-1.65,0.064l-1.704,0.455l-0.452,0.758l0.053,2.053l-0.561,1.449
	l-1.117,0.873l-1.545-0.639l-1.021-1.811l-2.27-1.985l-3.316-2.868v1.148v1.059l3.144,3.311l-0.35,3.75l13.788,10.148l-7.578,8.963
	l-1.039,1.396l0.08,0.588l0.347,0.812l0.054,0.874l1.49,1.145l0.538,0.565l1.113-0.565l1.438-0.537l0.932-0.773l0.639-1.195
	l0.561-0.572l0.613,0.691l1.038,0.623l0.745,0.402l0.214,0.74l-0.347,0.674l-4.342,0.656l-3.195,0.1l-4.838-0.882l-0.143-0.024
	l-5.621-0.201l-2.772,3.072l-2.967-1.984l-1.558,1.604l-1.572-1.278l-2.236,1.178l-0.744,0.48l-1.92,0.221l-2.441-0.221h-1.047
	h-7.854h-1.222h-0.873l-0.873,0.221l-0.698-0.221h-0.522h-0.525h-0.522h-2.442l-0.949,0.133l-0.396,0.057l-0.226,0.031l-1.57-0.222
	l-1.223,0.222l-5.563-0.115l-5.082-0.105l-1.248,0.174l-0.322,0.047h-0.523h-1.223l-1.57-0.222h-1.745h-1.92l-1.745,0.222h-1.57
	h-4.015h-2.442l-2.633-0.154l-0.479-0.029l-0.396-0.021l-0.158-0.008l-0.172-0.013l-0.672-0.04l-0.816-0.049l-0.478-0.027
	l-1.702-0.101l-1.92,0.222l-1.475,0.109l-1.492,0.109l-2.27-0.002h-2.094l-1.048,0.221h-2.442l-0.873-0.221h-1.222h-2.793h-0.873
	l-0.806-0.103l-0.939-0.119h-0.698h-1.047h-0.175h-0.873l-1.396,0.222l-1.844-0.098l-0.96-0.051l-1.386-0.073l-1.573,0.222h-1.745
	h-1.047h-0.264h-3.751h-0.524l-3.765,0.184l-0.773,0.037l-3.142-0.221h-3.491h-1.92h-2.094h-2.618H98.66h-1.571h-0.873l-1.396-0.223
	l-0.873,0.223h-0.698l-1.57,0.221h-1.571l-1.571-0.221h-1.222H85.57h-3.491l-0.34-0.072l-0.707-0.149h-0.873l-15.883,0.222
	l-4.712-0.222h-1.92l-0.408,0.104l-0.464,0.117h-0.434H55.55H42.457l-7.33,0.221h-8.205l-1.045-4.633l-3.315-15.224l-2.618-14.562
	l-1.92-25.598l-0.524-7.062l-0.349-3.752l-2.269-18.979l-1.745-5.078l-1.396-18.984l-1.047-8.831l-0.349-16.338L8.25,76.459
	l-1.047-0.883l-0.697-0.662l-0.175-3.312l0.524-1.325L5.982,68.51l1.222-1.104l0.873-2.65L8.6,64.535l0.873-1.988l-0.175-0.883
	l1.047,0.442l1.57-1.988l0.524,0.662l1.571-1.104l1.047-1.104l2.793-1.767l1.047-2.208l0.431-0.238l1.147-0.841l1.517-1.533
	l2.45-0.356l2.318-0.269l2.583-0.808l1.545-0.353l2.477,0.572l1.598,1.365l1.411,1.146l2.29-0.59l2.052-0.303l2.793,0.663
	l0.174-0.221l4.538-2.208l1.222-1.104h4.014l2.618-2.65l0.167-0.528l0.667-2.191l1.332-2.966l1.464-3.066l1.438-4.837l0.612-3.792
	l1.146-3.251l1.703-2.545l1.492-3.47l0.531-3.185l0.667-3.673l0.266-3.353l0.826-2.461l0.3-0.961l0.153-0.488l0.026-1.231
	l0.133-0.994l0.107-0.371l0.408-1.253l1.222-0.442l1.745,0.442l0.698,2.43l7.605,1.858l2.342,0.572l4.347,4.018l0.191,0.179
	l3.372,2.297l3.436,2.342l16.582-3.755l1.396-0.442l9.076-1.767l2.094-0.221l1.745-0.442h1.396l2.617-0.442v0.353v0.309
	l-6.282,2.651l0.523,1.988l7.854-1.325l-0.176-1.105l-2.094,0.221l2.077-0.751l0.366-0.132l-0.698-3.093l4.712-0.884l0.524,0.221
	l-0.524,0.884l-3.84,0.663l0.349,2.209l11.17-1.767l0.873,1.767h1.744l1.396,2.651h1.57l0.697-1.104l-0.349-5.522l1.571-1.325h1.744
	h0.873l0.176,1.325l3.142,0.442l1.745,0.442l-0.997-1.164l-0.61-0.073l0.019-0.278l0.759,0.13l1.354,0.963l0.152,0.186l0.022,0.015
	l-0.175-2.872l0.211-0.78l0.613-0.855l0.948-0.581l1.313-0.429l1.347-0.214l0.151,0.062l0.158,0.267l0.004,0.303l-0.242,0.21
	l-0.303-0.033l-0.273-0.157l-0.539,0.015l-0.869,0.221l-0.809,0.464l-0.566,0.411l-0.447,0.473l-0.207,0.57l-0.141,0.632
	l0.131,0.998l0.312,1.445l0.428,1.202l0.523,0.857l0.735,0.57l0.812,0.462l0.854,0.223l0.636-0.232l2.024-1.465l0.696-0.663
	l2.619-2.209l-2.561-3.124l0.255-0.221l1.606,1.577l1.596,1.968l0.407,0.327l0.56,0.082l0.536-0.093l0.742-0.075l1.935-0.144
	l-0.092-0.459l-1.873-0.985l-0.355-0.526l-0.139-0.758l3.176,2.008l0.315,0.201l0.175,0.884h1.92l0.098-0.446l0.076-0.437
	l-1.746-0.663l-1.482-1.253l-2.705-2.282l-1.396-1.546l0.361-0.287l0.86,0.508l0.873,0.442l0.14-0.442l-0.398-0.331l-0.413-0.338
	l0.368-0.252l0.652,0.259l6.807,5.081V4.904l0.524,0.221l-0.524-0.884l2.968,1.104l-2.793-2.43l1.223-0.663l4.015,3.535
	l-2.967-4.197l1.57-0.663l3.32,5.303l1.396,0.221l-1.744-4.418l0.697-0.221l2.094,4.86l1.92,0.442l-1.047-4.418l0.873-0.442
	l1.57,5.302l1.745,0.442l-0.175-4.197h1.223l0.176,6.186l1.223,0.442l1.396-3.976l0.873,0.442l-1.569,4.197l1.221,0.663L201.112,8
	l0.698,0.663l-2.095,3.093l1.223,0.884l2.443-2.651l0.873,0.884l-2.443,3.976l1.745,1.546l3.315-2.651l0.697,0.663l-3.665,3.312
	l0.698,0.663l3.665-2.651l0.698,0.884l-3.84,2.651l0.697,0.884l3.84-2.651l0.523,0.884l-3.84,2.651l0.523,0.884l3.84-2.651
	l1.92,2.651l-3.664,2.872l0.522,0.442l3.665-2.43l0.698,1.104l-3.538,2.47l0.585,0.846l0.335,0.44l3.665-2.871l0.698,0.883
	l-3.697,2.982l0.38,0.552l2.618-1.988l0.523,0.663l-2.617,1.988l0.523,0.663l3.143-2.209l0.697,0.663l-2.973,2.423l0.182,0.228
	l0.451,0.605l2.863-2.151l0.523,0.442l-1.396,1.767l-0.293,0.369l1.849,2.781l2.379-1.548l0.779,1.058l-1.687,1.634l-0.231,0.508
	l0.482,0.724l0.389,0.437l1.906,3.432l0.014,0.102l0.92,1.091l0.834,1.036l0.805,1.005l0.604,0.66l3.566-1.436l0.229,0.459
	l-3.45,1.553l0.315,0.459l0.173,0.66l0.059,0.258l2.703-0.804l1.621-0.526l-1.188,1.363l-2.142,0.901l0.887,0.607l2.617-0.883
	l0.523,0.883l-3.314,1.104l0.174,1.325l2.793-0.442l0.35,0.662l-3.84,0.883l0.174,1.325l4.538-0.442l0.698,3.754l-5.411,0.663
	l-0.349,1.323l3.664-0.219l0.176,0.881l-3.316,0.221l-0.35,1.325l3.666-0.221l-0.11,1.051l-0.063,0.274l-3.492,0.442v0.883
	l4.539-0.663l0.349,1.325l-4.712,0.442l-0.35,0.663l5.062-0.221l0.351,1.104l-5.236,0.442l-0.174,0.662h5.584l0.176,0.883
	l-5.585,0.442v0.662l5.409,0.221l0.35,0.883l-5.585,0.442v1.104l4.712-0.221l0.35,1.325l-0.697,4.637l0.175,2.65l-3.651,0.42
	l0.161,1.347l8.378-0.442l1.047,6.403l-5.76-3.312l-3.316,0.221l0.177,0.662l-0.351,0.442l1.396,4.416l4.712,1.987l-0.351,1.104
	l-3.664-1.546l1.396,2.87l-1.047,1.766l1.92-0.221l0.698,0.662h0.522l0.174,0.662l-2.441,0.221l0.174,0.442h3.143v0.662
	l-4.713,0.221l-0.175,1.766l-1.047,0.221l-0.349,0.662l0.697,0.221l0.35,1.766l-1.571,2.429l0.524,0.662l3.314-0.442l0.524,1.766
	h0.698l-0.351-3.312h0.351l0.522,3.974l0.351-0.221v-3.974h0.349l0.349,3.753l1.047-0.221l-0.349-3.532h0.349l0.524,3.753h0.349
	l-0.349-3.753l0.524-0.221l0.697,4.195l0.174,1.987l0.176,2.87h0.873v-0.002H239.342z M4.635,74.644l0.131,0.269l-0.211,0.168H4.153
	L3.94,75.132l-0.187,0.219l-0.268,0.102L3.061,75.42l-0.265-0.219l-0.293,0.117l-0.239-0.066L2.076,75.15l-0.241-0.068L1.57,74.998
	l-0.122-0.084l-0.197-0.303l0.134-0.269l0.16-0.287l0.479-0.269l0.506-0.219l0.454-0.203l0.319-0.236l0.106-0.185l0.134-0.236
	l0.292,0.086l0.213,0.084l0.214,0.32l-0.026,0.269l-0.107,0.219l0.239,0.185l0.188,0.338L4.635,74.644z M1.702,71.073l-0.318,0.033
	l-0.48-0.051l-0.133-0.084l-0.105-0.152L0.4,70.717l-0.136-0.135L0,70.432l0.025-0.219l0.107-0.355L0.106,69.37l0.106-0.338
	l0.372-0.099l0.318-0.135l0.37-0.068l0.11,0.32l0.08,0.303l0.08,0.269l0.185,0.338l0.134,0.269l0.108,0.267l-0.002,0.322
	L1.702,71.073z M239.342,113.993l-0.35-4.195l0.523-0.221L239.342,113.993z M26.93,228.964L26.93,228.964h8.205l7.33-0.221h13.09
	h0.789h0.433l0.464-0.117l0.408-0.104h1.92l4.712,0.223l15.884-0.223h0.872l0.707,0.15l0.341,0.07h3.49h1.745h1.223l1.57,0.221
	h1.571l1.571-0.221h0.697l0.873-0.222l1.396,0.222h0.873h1.57h2.794h2.617h2.095h1.92h3.49l3.143,0.221l0.773-0.037l3.765-0.182
	h0.523h3.751h0.265h1.047h1.745l1.572-0.223l1.387,0.073l0.96,0.051l1.843,0.099l1.396-0.223h0.873h0.175h1.047h0.698l0.938,0.119
	l0.806,0.104h0.873h2.793h1.223l0.873,0.221h2.441l1.049-0.221h2.094l2.269,0.002l1.492-0.111l1.476-0.109l1.92-0.221l1.701,0.1
	l0.479,0.028l0.813,0.049l0.672,0.04l0.174,0.012l0.156,0.01l0.396,0.021l0.479,0.028l2.633,0.154h2.442h4.015h1.57l1.745-0.222
	h1.92h1.745l1.571,0.222h1.222h0.523l0.322-0.045l1.248-0.176l5.082,0.105l5.564,0.115l1.222-0.222l1.571,0.222l0.225-0.031
	l0.396-0.057l0.947-0.133h2.443h0.523h0.523h0.524l0.696,0.223l0.873-0.223h0.873h1.224h7.854h1.047l2.442,0.223l1.92-0.223
	l-1.067,1.219l0.195,1.43 M1.702,71.073l0.268-0.254l0.002-0.322L1.863,70.23l-0.134-0.269l-0.185-0.338l-0.08-0.269l-0.08-0.303
	l-0.11-0.32l-0.37,0.068l-0.318,0.135l-0.372,0.099l-0.106,0.338l0.026,0.488l-0.107,0.355l-0.025,0.219l0.265,0.15l0.136,0.135
	l0.265,0.102l0.105,0.152l0.133,0.084l0.48,0.051L1.702,71.073z M4.635,74.644l-0.082-0.437l-0.188-0.338l-0.238-0.185l0.106-0.219
	l0.026-0.269l-0.213-0.32l-0.213-0.084l-0.292-0.086l-0.135,0.236L3.3,73.127l-0.319,0.236l-0.454,0.203l-0.506,0.219l-0.478,0.269
	l-0.161,0.287L1.25,74.61l0.196,0.303l0.122,0.084l0.266,0.084l0.241,0.068l0.187,0.102l0.239,0.066L2.794,75.2l0.265,0.219
	l0.426,0.033l0.268-0.102l0.187-0.219l0.213-0.051h0.401l0.211-0.168L4.635,74.644z M217.697,231.173l-0.194-1.43l1.067-1.22l0,0
	l0.744-0.479l2.235-1.178l1.574,1.278l1.557-1.604l2.967,1.983l2.773-3.071l5.619,0.2l0.144,0.025l4.838,0.882l3.196-0.1
	l4.341-0.656l0.346-0.674l-0.213-0.74l-0.745-0.403l-1.039-0.622l-0.611-0.691l-0.562,0.572l-0.639,1.194l-0.933,0.774l-1.438,0.537
	l-1.114,0.564l-0.538-0.564l-1.488-1.146l-0.056-0.874l-0.346-0.811l-0.08-0.588l1.039-1.396l7.578-8.962l-13.788-10.147l0.35-3.752
	l-3.143-3.31v-1.058v-1.149l3.316,2.868l2.269,1.986l1.021,1.809l1.545,0.641l1.119-0.873l0.561-1.451l-0.053-2.051l0.451-0.759
	l1.705-0.455l1.651-0.065l1.358-0.287l1.225-1.178l-0.08-1.363l-0.216-0.887l-0.052-0.207l0.748,0.437l1.195,0.927l0.667,1.146
	l-0.374,0.789l-0.904,0.49l-1.385,1.146l-0.587,1.295l0.4,2.877l0.478,0.89l0.588,1.18l0.982,1.027l1.396,2.204l0.444,0.675
	l0.56,1.01l0.218,0.082l2.312,0.271h0.852h0.453l1.412,0.033l0.373,0.49l0.934,0.554l1.625,0.657l1.65,0.287l1.545,1.008
	l1.013,1.533l1.942,0.975l1.119-0.371l1.225-0.084l0.477-0.279l6.447,3.73l0.293-0.421l-6.523-4.813l1.838-2.793l6.631,4.746
	l0.392-0.229l3.669-26.469l0.521-3.758l-5.236-3.531l-11.17-12.578l-2.321,3.293l-4.835,6.859l-3.49-3.311h-5.236l-1.396-2.428
	l0.175-0.221l0.698-0.884l-0.524-0.44l-0.349-0.222l0.698-1.766l0.873-2.647l0.211-0.658l-1.957-1.33l1.92-2.869l6.98-0.221
	l-5.235-8.607l-4.538-7.946l-18.5,1.324l-0.35-0.44l-5.586,0.221l-3.142-1.104l-0.873-0.221l0.522-1.767l0.523,0.221l3.231,1.506
	l0.086,0.04H228l1.242-0.697l0.328-0.185l0.35-1.766l5.062,1.104l4.363-4.415l1.222-5.958h-2.094l1.047-0.662l-0.523-0.662
	l1.744-1.104l-3.84,1.545l-1.047-0.221l-0.523-2.207l-0.35-0.662l-1.57,0.44l0.174-0.883l5.586-0.44l-0.35-4.195h-0.697v-0.662
	h0.523l0.175-1.104h-0.349l-0.698,0.662l0.698-1.104l-0.174-3.091l0.697-0.442l1.57-0.221l0.176-5.74l-0.699,0.442l0.351,4.195
	l-1.047,0.221l0.174-4.415l-0.524,0.221l0.351,4.195h-0.873l-0.175-2.87l-0.176-1.987l-0.696-4.195l-0.524,0.221l0.35,3.753H236.9
	l-0.524-3.753h-0.349l0.349,3.532l-1.047,0.221l-0.349-3.753h-0.349v3.974l-0.351,0.221l-0.522-3.974h-0.35l0.35,3.312h-0.698
	l-0.524-1.766l-3.314,0.442l-0.524-0.662l1.571-2.429l-0.35-1.766l-0.697-0.221l0.349-0.662l1.048-0.221l0.176-1.766l4.711-0.221
	v-0.662h-3.143l-0.174-0.442l2.443-0.221l-0.176-0.662h-0.522l-0.698-0.662l-1.92,0.221l1.047-1.766l-1.396-2.87l3.666,1.546
	l0.349-1.104l-4.712-1.987l-1.396-4.416l0.351-0.442l-0.175-0.662l3.314-0.221l5.76,3.312l-1.047-6.403l-8.378,0.442l-0.161-1.347
	l3.651-0.42l-0.175-2.65l0.697-4.637l-0.35-1.325l-4.712,0.221V71.16l5.585-0.442l-0.35-0.883l-5.409-0.221v-0.662l5.585-0.442
	l-0.176-0.883h-5.584l0.175-0.662l5.235-0.442l-0.35-1.104l-5.061,0.221l0.349-0.663l4.712-0.442l-0.35-1.325l-4.537,0.663V62.99
	l3.49-0.442l0.064-0.274l0.11-1.051l-3.665,0.221l0.349-1.325l3.316-0.221l-0.175-0.881l-3.666,0.219l0.35-1.323l5.411-0.663
	l-0.698-3.754l-4.538,0.442l-0.174-1.325l3.84-0.883l-0.349-0.662l-2.793,0.442l-0.176-1.325l3.315-1.104l-0.522-0.883l-2.618,0.883
	l-0.888-0.607l2.143-0.901l1.189-1.363l-1.621,0.526l-2.703,0.804l-0.059-0.258l-0.174-0.66l-0.314-0.459l3.451-1.553l-0.229-0.459
	l-3.565,1.436l-0.604-0.66l-0.806-1.005l-0.834-1.036l-0.918-1.091l-0.015-0.102l-1.905-3.432l-0.39-0.437l-0.481-0.724l0.23-0.508
	l1.688-1.634l-0.781-1.058l-2.379,1.548l-1.846-2.781l0.293-0.369l1.396-1.767l-0.524-0.442l-2.863,2.151l-0.451-0.605l-0.18-0.228
	l2.971-2.423l-0.697-0.663l-3.143,2.209l-0.523-0.663l2.618-1.988l-0.524-0.663l-2.617,1.988l-0.381-0.552l3.697-2.982l-0.697-0.883
	l-3.664,2.871l-0.336-0.44l-0.586-0.846l3.538-2.47l-0.696-1.104l-3.666,2.43l-0.523-0.442l3.665-2.872l-1.921-2.651l-3.84,2.651
	l-0.523-0.884l3.84-2.651l-0.523-0.884l-3.84,2.651l-0.697-0.884l3.84-2.651l-0.698-0.884l-3.665,2.651l-0.697-0.663l3.666-3.312
	l-0.699-0.663l-3.315,2.651l-1.745-1.546l2.443-3.976l-0.873-0.884l-2.443,2.651l-1.222-0.884l2.094-3.093l-0.696-0.663
	l-2.443,3.755l-1.223-0.663l1.57-4.197l-0.873-0.442l-1.396,3.976l-1.221-0.442l-0.177-6.186h-1.222l0.174,4.197l-1.745-0.442
	l-1.569-5.302L190.12,2.69l1.047,4.418l-1.92-0.442l-2.094-4.86l-0.697,0.221l1.744,4.418l-1.396-0.221l-3.315-5.302l-1.57,0.663
	l2.967,4.197l-4.014-3.535l-1.223,0.663l2.793,2.43l-2.968-1.105l0.524,0.884l-0.524-0.221V5.34l-6.808-5.081L172.014,0
	l-0.367,0.252l0.413,0.338l0.397,0.331l-0.14,0.442l-0.873-0.442l-0.86-0.508l-0.36,0.287l1.396,1.546l2.705,2.282l1.484,1.253
	l1.744,0.663l-0.074,0.437l-0.1,0.446h-1.92l-0.174-0.884l-0.316-0.201l-3.176-2.008l0.139,0.758l0.355,0.526l1.873,0.985
	l0.092,0.459l-1.935,0.144l-0.741,0.075l-0.537,0.093l-0.559-0.082l-0.408-0.327l-1.595-1.968l-1.606-1.577l-0.256,0.221
	l2.561,3.124l-2.617,2.209l-0.698,0.663l-2.024,1.465l-0.635,0.232l-0.854-0.223l-0.812-0.462l-0.736-0.57l-0.523-0.857
	l-0.427-1.202l-0.313-1.445l-0.131-0.998l0.141-0.632l0.207-0.57l0.447-0.473l0.566-0.411l0.809-0.464l0.869-0.221l0.539-0.015
	l0.273,0.157l0.305,0.033l0.24-0.21l-0.004-0.303l-0.158-0.267l-0.151-0.062l-1.347,0.214l-1.312,0.429l-0.949,0.581l-0.612,0.855
	l-0.211,0.78l0.175,2.872l-0.023-0.015l-0.152-0.186l-1.354-0.963l-0.759-0.13l-0.019,0.278l0.611,0.073l0.996,1.164l-1.744-0.442
	l-3.143-0.442l-0.176-1.325h-0.873h-1.744l-1.571,1.325l0.349,5.523l-0.696,1.104h-1.571l-1.396-2.651h-1.744l-0.872-1.767
	l-11.171,1.767l-0.349-2.209l3.84-0.663l0.524-0.884l-0.524-0.221l-4.712,0.884l0.698,3.093l-0.366,0.132l-2.077,0.751l2.095-0.221
	l0.175,1.105l-7.854,1.325l-0.523-1.988l6.283-2.651V9.227V8.874l-2.618,0.442h-1.396l-1.745,0.442l-2.094,0.221l-9.076,1.767
	l-1.396,0.442l-16.582,3.755l-3.436-2.342l-3.372-2.297l-0.191-0.179l-4.347-4.018l-2.342-0.572l-7.605-1.858l-0.698-2.43
	l-1.75-0.442l-1.222,0.442L69.11,3.5l-0.107,0.371L68.87,4.865l-0.025,1.231L68.69,6.584l-0.3,0.961l-0.826,2.461L67.3,13.359
	l-0.668,3.673l-0.531,3.185l-1.492,3.47l-1.703,2.545l-1.145,3.251l-0.613,3.792l-1.438,4.837l-1.464,3.066l-1.332,2.966
	l-0.667,2.191l-0.167,0.528l-2.617,2.65h-4.015l-1.222,1.104l-4.538,2.208l-0.174,0.221l-2.793-0.663l-2.052,0.303l-2.289,0.59
	l-1.412-1.146l-1.598-1.365l-2.477-0.572l-1.545,0.353l-2.583,0.808l-2.318,0.269l-2.45,0.356l-1.517,1.533l-1.147,0.841
	l-0.431,0.238l-1.047,2.208l-2.793,1.767l-1.047,1.104l-1.571,1.104l-0.523-0.662L10.35,62.1l-1.047-0.442l0.175,0.883l-0.873,1.988
	L8.081,64.75L7.208,67.4l-1.222,1.104l0.873,1.767l-0.524,1.325l0.175,3.312l0.697,0.662l1.048,0.883l2.094,13.467l0.349,16.338
	l1.047,8.831l1.396,18.985l1.745,5.077l2.269,18.979l0.349,3.752l0.524,7.062l1.92,25.598l2.618,14.562l3.316,15.224l1.045,4.633"/>
</svg>
