<?xml version="1.0" encoding="UTF-8" standalone="no"?>
<svg width="684px" height="254px" viewBox="0 0 684 254" version="1.1" xmlns="http://www.w3.org/2000/svg" xmlns:xlink="http://www.w3.org/1999/xlink" xmlns:sketch="http://www.bohemiancoding.com/sketch/ns">
    <!-- Generator: Sketch 3.3.2 (12043) - http://www.bohemiancoding.com/sketch -->
    <title>Desktop</title>
    <desc>Created with Sketch.</desc>
    <defs></defs>
    <g id="Welcome" stroke="none" stroke-width="1" fill="none" fill-rule="evenodd" sketch:type="MSPage">
        <g id="Desktop" sketch:type="MSArtboardGroup">
            <path d="M682,54 L682,200 C653.281193,200 630,223.281193 630,252 L630,252 L54,252 L54,252 C54,223.281193 30.718807,200 2,200 L2,54 L2,54 C30.718807,54 54,30.718807 54,2 L630,2 C630,30.718807 653.281193,54 682,54 Z" id="Rectangle-6" stroke="#431800" stroke-width="4" sketch:type="MSShapeGroup"></path>
            <path d="M672,64.2107489 L672,189.789251 C645.215204,194.061106 624.061106,215.215204 619.789251,242 L619.789251,242 L64.2107489,242 L64.2107489,242 C59.9388936,215.215204 38.784796,194.061106 12,189.789251 L12,64.2107489 L12,64.2107489 C38.784796,59.9388936 59.9388936,38.784796 64.2107489,12 L619.789251,12 C624.061106,38.784796 645.215204,59.9388936 672,64.2107489 Z" id="Rectangle-7" stroke="#431800" stroke-width="1.5" sketch:type="MSShapeGroup"></path>
            <text id="Finding-San-Francisc" sketch:type="MSTextLayer" font-family="Proxima Nova" font-size="24" font-weight="normal" sketch:alignment="middle" letter-spacing="1.29230762" fill="#431800">
                <tspan x="75.5304068" y="180">Finding San Francisco’s historical waterscape</tspan>
            </text>
            <path d="M129.992,129.600823 L131.968,125.469254 C134.4,127.324244 135.616,127.914468 138.048,128.673328 C141.544,129.769458 145.42,130.444 148.156,130.444 C150.284,130.444 153.4,130.022411 155.984,129.34787 C159.556,128.420374 161.684,127.324244 163.888,125.300618 C167.308,122.096545 169.284,117.290434 169.284,112.147052 C169.284,106.497765 167.156,101.775972 163.128,98.6562156 C159.556,95.8737305 155.604,94.4403291 143.52,91.657844 C138.276,90.4773957 136.528,88.9596766 136.528,85.7556028 C136.528,81.8769872 139.72,79.2631376 144.508,79.2631376 C148.156,79.2631376 152.108,80.5279035 154.464,82.3828936 C157.428,84.6594723 158.72,87.1890043 159.632,92.585339 L166.624,92.585339 L166.624,72.0118128 L160.316,72.0118128 L158.796,75.9747461 C153.856,72.3490837 150.284,71.2529532 143.596,71.2529532 C130.6,71.2529532 123,77.8297362 123,89.2126298 C123,91.8264794 123.456,94.1873759 124.444,96.3796369 C126.344,100.426888 129.08,102.787784 134.248,104.727092 C137.516,105.991858 142.76,107.509577 146.408,108.268437 C149.828,109.027296 151.956,109.786156 153.02,110.545016 C154.616,111.809782 155.452,113.496136 155.452,115.519762 C155.452,119.65133 151.956,122.26518 146.332,122.26518 C142.228,122.26518 138.732,120.916096 135.768,118.133611 C132.804,115.351126 131.664,113.158865 130.676,107.509577 L123.836,107.509577 L123.836,129.600823 L129.992,129.600823 Z M172.628,128.841963 L222.712,128.841963 L222.712,105.654587 L216.024,105.654587 C214.656,118.808153 212.072,121.590638 201.052,121.506321 L194.212,121.506321 L194.212,103.462326 L195.504,103.462326 C201.356,103.293691 202.192,104.389821 202.572,112.737277 L208.88,112.737277 L208.88,87.1046865 L202.572,87.1046865 C202.344,94.5246468 201.28,95.8737305 195.504,95.9580482 L194.212,95.9580482 L194.212,79.9376794 L200.824,79.9376794 C212.3,79.769044 214.352,81.624034 216.024,94.0187404 L222.712,94.0187404 L222.712,72.6020369 L172.628,72.6020369 L172.628,79.9376794 L175.44,79.9376794 C179.62,80.0219972 180.152,80.5279035 180.076,84.8281078 L180.076,116.615892 C180.152,120.916096 179.62,121.422003 175.44,121.506321 L172.628,121.506321 L172.628,128.841963 Z M229.248,128.841963 L279.332,128.841963 L279.332,105.654587 L272.644,105.654587 C271.276,118.808153 268.692,121.590638 257.672,121.506321 L250.832,121.506321 L250.832,103.462326 L252.124,103.462326 C257.976,103.293691 258.812,104.389821 259.192,112.737277 L265.5,112.737277 L265.5,87.1046865 L259.192,87.1046865 C258.964,94.5246468 257.9,95.8737305 252.124,95.9580482 L250.832,95.9580482 L250.832,79.9376794 L257.444,79.9376794 C268.92,79.769044 270.972,81.624034 272.644,94.0187404 L279.332,94.0187404 L279.332,72.6020369 L229.248,72.6020369 L229.248,79.9376794 L232.06,79.9376794 C236.24,80.0219972 236.772,80.5279035 236.696,84.8281078 L236.696,116.615892 C236.772,120.916096 236.24,121.422003 232.06,121.506321 L229.248,121.506321 L229.248,128.841963 Z M307.452,104.221186 L317.104,104.221186 C325.16,104.221186 329.036,103.209373 332.38,100.34257 C335.496,97.7287206 337.168,93.512834 337.168,88.5380879 C337.168,83.6476596 335.572,79.431773 332.684,76.8179234 C329.416,73.7824851 325.16,72.6020369 317.104,72.6020369 L285.868,72.6020369 L285.868,80.0219972 L288.68,80.0219972 C292.86,80.0219972 293.392,80.6122213 293.316,84.8281078 L293.316,116.615892 C293.392,120.916096 292.86,121.422003 288.68,121.506321 L285.868,121.506321 L285.868,128.841963 L315.812,128.841963 L315.812,121.506321 L312.164,121.506321 C307.908,121.422003 307.376,120.916096 307.452,116.615892 L307.452,104.221186 Z M307.452,96.8855433 L307.452,80.0219972 L312.164,80.0219972 C319.612,80.0219972 322.348,82.2985759 322.348,88.4537702 C322.348,94.6089645 319.612,96.8855433 312.164,96.8855433 L307.452,96.8855433 Z M402.604,107.087989 C402.148,112.400006 401.388,114.760902 399.488,117.45907 C397.284,120.578826 394.244,122.096545 390.596,122.096545 C382.236,122.096545 377.524,114.254996 377.524,100.511206 C377.524,87.1046865 382.312,79.1788199 390.444,79.1788199 C394.244,79.1788199 397.436,80.7808567 399.716,83.816295 C401.844,86.5987801 402.604,89.1283121 403.212,94.7776 L410.584,94.7776 L410.584,71.927495 L403.668,71.927495 L402.148,76.3963348 C396.22,72.0961305 393.18,71 387.176,71 C379.652,71 373.724,73.5295319 368.784,78.9258667 C363.616,84.5751546 361.108,91.657844 361.108,100.595523 C361.108,109.870474 363.692,117.290434 368.936,122.855404 C373.952,128.167421 379.728,130.444 388.316,130.444 C397.512,130.444 404.048,127.155609 407.544,120.578826 C409.52,116.868845 410.28,113.411818 410.584,107.087989 L402.604,107.087989 Z M415.6,128.841963 L445.544,128.841963 L445.544,121.506321 L442.428,121.506321 C438.248,121.422003 437.716,120.916096 437.792,116.615892 L437.792,84.8281078 C437.716,80.5279035 438.248,80.0219972 442.428,79.9376794 L445.544,79.9376794 L445.544,72.6020369 L415.6,72.6020369 L415.6,79.9376794 L418.716,79.9376794 C422.896,80.0219972 423.428,80.5279035 423.352,84.8281078 L423.352,116.615892 C423.428,120.916096 422.896,121.422003 418.716,121.506321 L415.6,121.506321 L415.6,128.841963 Z M498.82,72.6020369 L449.572,72.6020369 L449.572,94.2716936 L456.412,94.2716936 C456.564,83.9849305 459.604,79.9376794 467.204,80.1063149 L467.204,114.84522 C467.204,119.819966 467.128,120.325872 466.064,120.831779 C465.076,121.337685 462.644,121.590638 459.148,121.590638 L459.148,128.841963 L489.244,128.841963 L489.244,121.590638 C485.444,121.590638 483.392,121.337685 482.404,120.831779 C481.264,120.325872 481.188,119.65133 481.188,114.760902 L481.188,80.1063149 C488.788,79.9376794 491.828,83.9849305 491.98,94.2716936 L498.82,94.2716936 L498.82,72.6020369 Z M546.092,121.674956 L542.596,121.674956 C538.568,121.843591 537.884,121.000414 537.884,115.94135 L537.884,105.654587 L548.904,86.4301447 C551.868,81.0338099 553.312,80.0219972 558.024,79.769044 L558.024,72.6020369 L536.516,72.6020369 L536.516,79.769044 L537.2,79.769044 C540.544,79.769044 541.76,80.2749504 541.76,81.5397163 C541.76,82.2985759 541.38,83.4790241 540.848,84.4065191 L534.008,95.8737305 L528.156,85.6712851 C526.636,82.9731177 526.408,82.5515291 526.408,81.5397163 C526.408,80.4435858 527.548,79.769044 529.524,79.769044 L532.032,79.769044 L532.032,72.6020369 L503,72.6020369 L503,79.769044 C508.624,80.4435858 509.84,81.2867631 512.728,86.345827 L523.824,105.654587 L523.824,115.94135 C523.824,121.000414 523.14,121.843591 519.112,121.674956 L515.54,121.674956 L515.54,128.841963 L546.092,128.841963 L546.092,121.674956 Z" id="SEEP-CITY" fill="#431800" sketch:type="MSShapeGroup"></path>
        </g>
    </g>
</svg>